<?xml version="1.0" standalone="no"?>
<!DOCTYPE svg PUBLIC "-//W3C//DTD SVG 20010904//EN"
 "http://www.w3.org/TR/2001/REC-SVG-20010904/DTD/svg10.dtd">
<svg version="1.0" xmlns="http://www.w3.org/2000/svg"
 width="2362.000000pt" height="704.000000pt" viewBox="0 0 2362.000000 704.000000"
 preserveAspectRatio="xMidYMid meet">

<g transform="translate(0.000000,704.000000) scale(0.100000,-0.100000)"
fill="#000000" stroke="none">
<path d="M6347 6010 c-353 -64 -653 -243 -853 -509 -142 -190 -200 -337 -495
-1271 -281 -887 -330 -1070 -332 -1235 -2 -126 11 -189 59 -291 82 -174 255
-286 506 -330 120 -21 444 -15 558 11 279 62 507 182 691 365 241 239 287 348
684 1615 128 409 208 682 242 830 95 412 -68 700 -455 802 -85 23 -121 26
-297 29 -166 3 -218 0 -308 -16z m168 -595 c35 -34 31 -82 -17 -250 -55 -193
-595 -1894 -630 -1985 -69 -178 -117 -230 -213 -230 -102 0 -115 43 -65 232
39 152 601 1928 646 2046 58 150 120 212 212 212 32 0 49 -6 67 -25z"/>
<path d="M2305 5948 c-2 -7 -191 -607 -420 -1333 -229 -726 -477 -1512 -551
-1746 -74 -234 -134 -429 -134 -432 0 -4 331 -6 736 -5 l737 3 108 345 c60
190 109 346 109 348 0 1 -124 2 -275 2 -194 0 -275 3 -275 11 0 6 195 631 434
1388 239 757 438 1389 441 1404 l7 27 -456 0 c-356 0 -458 -3 -461 -12z"/>
<path d="M3446 5938 c-2 -13 -18 -520 -35 -1128 l-31 -1105 -200 -634 c-110
-349 -200 -636 -200 -638 0 -1 190 -3 423 -3 l423 0 199 633 198 632 232 380
c269 441 1097 1792 1132 1848 l23 37 -419 0 -419 0 -25 -42 c-97 -169 -584
-1141 -652 -1305 -18 -42 -30 -40 -15 3 31 91 200 1207 200 1319 l0 25 -415 0
-415 0 -4 -22z"/>
<path d="M7796 5818 c-25 -79 -232 -737 -461 -1463 -426 -1351 -592 -1876
-601 -1908 -5 -16 16 -17 378 -15 l382 3 227 720 c125 396 239 754 252 795
l25 75 0 -140 c0 -77 -5 -435 -12 -795 -7 -360 -12 -656 -12 -657 1 -1 397 -4
881 -8 l880 -7 41 43 c40 43 45 58 219 609 98 311 184 586 191 611 l14 46 202
6 c207 6 291 18 413 59 121 41 195 88 306 195 105 101 106 103 124 83 15 -17
31 -20 94 -20 l76 0 -83 -47 c-61 -34 -106 -71 -175 -142 -115 -119 -157 -201
-247 -476 -97 -298 -104 -334 -104 -525 -1 -210 5 -229 112 -332 129 -125 213
-153 462 -152 172 1 234 11 336 54 42 18 49 19 64 5 14 -13 78 -15 475 -15
l459 0 38 37 38 37 38 -37 38 -37 480 0 480 0 34 35 c19 19 39 35 45 35 6 0
26 -16 45 -35 l34 -35 460 0 460 0 33 32 33 32 33 -32 33 -32 459 0 459 0 33
32 33 32 33 -32 33 -32 460 0 460 0 38 39 c35 36 45 60 118 292 44 140 81 255
82 257 2 1 6 -30 9 -70 7 -80 34 -169 71 -232 13 -23 62 -78 108 -122 139
-133 269 -184 527 -205 243 -20 511 4 679 61 178 61 293 139 478 324 201 202
250 287 366 639 52 158 68 221 68 264 0 48 4 61 26 84 20 20 45 89 105 278
114 366 132 461 133 696 0 173 -2 196 -23 254 -32 90 -79 158 -172 245 -90 85
-177 133 -304 168 -74 21 -101 22 -370 22 l-290 0 -118 -31 c-134 -36 -298
-110 -396 -180 -86 -62 -255 -232 -308 -310 l-41 -62 -4 137 c-3 126 -5 142
-31 193 -39 80 -165 199 -243 230 -52 20 -80 23 -242 27 -144 3 -198 0 -256
-12 -87 -20 -197 -71 -282 -131 l-61 -44 -49 50 c-114 116 -182 139 -414 139
-176 0 -264 -14 -367 -60 -41 -18 -48 -19 -63 -5 -14 13 -81 15 -488 15 -351
0 -472 3 -472 12 0 6 25 89 55 183 46 145 55 185 55 247 0 72 -1 75 -38 111
l-38 37 -490 0 -490 0 -36 -37 c-33 -35 -47 -76 -203 -573 -93 -294 -172 -542
-176 -550 -5 -9 -9 21 -9 71 0 155 -37 234 -169 362 -90 88 -178 135 -301 163
-99 22 -532 31 -667 14 -247 -31 -511 -149 -672 -300 -24 -23 -45 -40 -47 -38
-2 2 4 31 14 63 13 47 17 102 17 260 0 241 -5 257 -117 370 -117 116 -232 161
-472 184 -68 7 -450 11 -1010 11 l-901 0 -244 -778 c-135 -427 -247 -783 -251
-790 -7 -15 -20 808 -20 1281 l0 287 -384 0 -385 0 -45 -142z m6475 -1633
l-508 -1610 -418 -3 -417 -2 6 22 c3 13 233 741 510 1618 l503 1595 414 5
c272 3 415 2 416 -5 1 -5 -226 -734 -506 -1620z m-3266 1615 c119 -14 207 -36
280 -71 88 -41 130 -81 167 -157 31 -63 33 -72 32 -172 0 -129 -27 -242 -144
-615 -137 -433 -190 -546 -314 -670 -168 -168 -359 -229 -756 -243 l-194 -7
-172 -545 c-95 -300 -187 -591 -204 -647 l-32 -103 -419 0 c-231 0 -419 3
-419 8 -1 4 228 733 507 1619 l508 1613 535 0 c298 0 575 -5 625 -10z m1760
-531 c123 -12 256 -47 327 -86 65 -35 143 -120 176 -190 25 -53 27 -68 26
-178 -1 -106 -6 -139 -42 -280 -59 -231 -201 -694 -593 -1932 l-11 -33 -394 0
c-217 0 -394 1 -394 3 0 1 16 49 35 107 19 58 35 109 35 114 0 5 -18 -12 -40
-37 -92 -104 -245 -194 -380 -223 -142 -30 -312 -6 -424 60 -174 103 -180 258
-27 728 80 245 134 353 221 440 57 57 85 75 201 131 73 36 247 106 385 156
295 107 406 153 453 188 42 32 88 129 131 278 41 138 49 224 26 260 -14 21
-24 25 -67 25 -110 0 -133 -37 -244 -382 l-69 -218 -378 0 c-209 0 -378 4
-378 9 0 5 24 83 54 173 122 369 233 537 450 680 269 177 564 243 921 207z
m3602 -14 c104 -31 200 -121 239 -224 9 -25 18 -48 20 -50 2 -2 33 24 70 58
198 181 424 264 634 232 142 -22 228 -80 281 -187 31 -62 32 -67 27 -161 -3
-56 -17 -143 -32 -203 -15 -58 -171 -565 -348 -1127 l-322 -1023 -394 0 c-311
0 -393 3 -389 13 15 39 572 1813 601 1913 60 211 65 268 22 296 -22 15 -101 8
-133 -11 -74 -45 -93 -99 -463 -1274 l-295 -937 -393 0 c-370 0 -393 1 -388
18 3 9 129 411 281 892 384 1219 392 1247 361 1295 -14 21 -24 25 -64 25 -74
0 -132 -41 -171 -122 -17 -34 -176 -523 -353 -1085 l-322 -1023 -394 0 -393 0
7 23 c4 12 193 609 420 1327 l412 1305 400 3 401 2 -13 -37 c-8 -21 -28 -76
-45 -122 l-32 -84 63 55 c150 131 267 193 423 224 83 16 208 11 282 -11z
m2823 1 c308 -59 480 -247 480 -522 0 -149 -32 -297 -137 -636 l-77 -248 -525
-2 -525 -3 -94 -295 c-138 -437 -151 -499 -117 -533 37 -38 129 -28 185 20 48
40 92 139 176 401 l78 242 384 0 383 0 -7 -22 c-151 -492 -221 -628 -416 -814
-222 -211 -452 -306 -778 -321 -360 -17 -638 86 -737 274 -17 32 -39 85 -48
117 -26 88 -16 254 24 411 35 141 328 1071 366 1164 81 198 183 360 294 470
163 160 422 278 681 311 98 12 315 5 410 -14z"/>
<path d="M10516 5252 c-8 -13 -256 -801 -256 -814 0 -18 142 -2 186 20 82 42
109 92 195 355 105 320 111 384 39 419 -42 20 -155 34 -164 20z"/>
<path d="M12135 3770 c-167 -114 -217 -177 -289 -372 -39 -104 -86 -286 -86
-329 0 -47 31 -73 86 -73 78 1 111 24 149 107 34 73 238 704 233 719 -2 5 -44
-19 -93 -52z"/>
<path d="M18746 4784 c-37 -21 -80 -114 -145 -320 -28 -89 -51 -166 -51 -173
0 -7 36 -11 114 -11 l115 0 41 132 c78 247 96 348 68 376 -17 17 -107 14 -142
-4z"/>
<path d="M17330 5759 c-350 -16 -652 -68 -1029 -175 -69 -20 -129 -39 -133
-42 -4 -4 160 -6 365 -4 l372 3 180 44 c181 44 255 58 505 92 113 15 204 18
553 18 229 0 405 3 390 7 -54 13 -406 49 -576 58 -194 11 -385 11 -627 -1z"/>
<path d="M19321 2360 c100 -157 215 -338 257 -403 l75 -118 76 6 c42 4 77 8
78 9 0 0 -136 163 -304 361 -168 198 -318 376 -334 395 -16 19 52 -93 152
-250z"/>
<path d="M2703 2265 c-125 -34 -199 -95 -254 -209 -67 -137 -83 -261 -44 -335
8 -16 51 -61 97 -101 46 -40 98 -89 116 -109 32 -34 33 -39 27 -86 -14 -108
-72 -187 -125 -170 -29 9 -26 54 9 158 l30 87 -143 0 -143 0 -21 -72 c-51
-171 -52 -233 -5 -288 95 -113 371 -112 531 2 64 46 106 112 143 226 39 123
48 224 25 274 -17 36 -109 128 -199 201 -57 46 -65 73 -44 141 21 65 49 96 87
96 26 0 30 -4 30 -28 0 -16 -7 -51 -15 -78 -8 -27 -15 -52 -15 -56 0 -5 63 -8
140 -8 l139 0 16 53 c47 157 42 215 -19 262 -70 52 -245 71 -363 40z"/>
<path d="M4032 2192 c-12 -38 -22 -71 -22 -75 0 -4 67 -7 148 -7 l148 0 22 68
c12 38 22 71 22 75 0 4 -67 7 -148 7 l-148 0 -22 -68z"/>
<path d="M5977 2253 c-6 -11 -367 -1157 -367 -1166 0 -4 67 -7 149 -7 l150 0
61 193 c34 105 69 217 79 247 l18 55 95 3 95 3 35 107 34 107 -94 3 c-91 3
-93 3 -87 25 14 47 59 192 62 196 1 2 49 3 107 2 l105 -2 35 110 c20 61 36
115 36 121 0 12 -506 14 -513 3z"/>
<path d="M13130 2253 c-365 -17 -736 -123 -1053 -299 -348 -194 -695 -500
-926 -816 l-42 -58 1081 -1 c594 -1 1084 -2 1089 -3 5 -1 30 27 55 61 191 260
491 470 848 592 128 44 307 86 408 97 36 3 71 10 77 13 29 15 -349 190 -572
265 -320 108 -675 163 -965 149z m425 -178 c151 -20 356 -73 503 -130 64 -26
120 -50 124 -54 5 -4 -35 -19 -88 -34 -314 -88 -627 -288 -835 -533 l-71 -84
-859 0 c-498 0 -859 4 -859 9 0 19 219 217 344 311 284 213 570 360 867 445
109 32 286 68 379 78 97 10 389 6 495 -8z"/>
<path d="M20075 2245 c-137 -14 -437 -55 -444 -61 -2 -2 14 -23 35 -46 21 -24
51 -58 66 -75 l26 -32 99 19 c150 28 323 49 530 61 161 10 214 9 368 -5 458
-43 1021 -132 1525 -242 284 -61 259 -57 233 -45 -35 16 -425 121 -793 215
-764 195 -1220 253 -1645 211z"/>
<path d="M5373 2172 l-142 -3 -23 -72 c-22 -68 -25 -72 -55 -75 -29 -3 -33 -8
-52 -65 -27 -80 -27 -87 8 -87 l29 0 -79 -247 c-110 -344 -135 -441 -121 -475
22 -53 52 -63 201 -63 l134 0 17 50 c34 99 34 92 -4 99 -20 4 -38 11 -41 17
-7 10 12 72 126 432 l60 187 39 0 38 0 25 75 26 75 -40 0 c-21 0 -39 2 -39 4
0 2 9 34 21 71 11 36 19 69 17 73 -2 4 -67 6 -145 4z"/>
<path d="M19195 2091 c-331 -84 -724 -216 -1160 -391 -329 -132 -528 -195
-840 -264 -275 -62 -424 -82 -675 -92 -520 -22 -1131 119 -1554 359 l-78 44
-137 -24 c-139 -24 -386 -81 -476 -109 -89 -29 -255 -95 -255 -103 0 -4 66
-20 148 -35 81 -16 244 -52 362 -81 551 -136 1099 -244 1450 -287 143 -18 664
-17 790 1 141 19 514 96 685 141 340 88 664 202 1010 355 315 139 568 229 874
312 75 20 137 38 139 39 7 5 -112 174 -122 173 -6 0 -78 -17 -161 -38z"/>
<path d="M3465 2059 c-68 -10 -162 -53 -218 -99 -46 -39 -79 -95 -117 -199
l-30 -81 130 0 c72 0 133 0 137 -1 4 0 18 30 30 68 46 137 65 163 107 147 22
-8 20 -47 -4 -128 -14 -43 -29 -71 -44 -81 -12 -8 -81 -37 -154 -64 -175 -66
-207 -84 -242 -133 -36 -49 -90 -210 -97 -290 -7 -72 9 -99 72 -123 81 -32
174 -11 250 56 l35 31 -15 -41 -14 -41 143 0 142 0 97 308 c142 452 152 496
137 554 -12 41 -52 81 -100 101 -46 20 -170 28 -245 16z m-37 -531 c-3 -7 -24
-70 -47 -141 -24 -70 -49 -134 -58 -142 -19 -20 -62 -19 -70 1 -8 22 23 129
53 184 31 56 138 141 122 98z"/>
<path d="M4827 2059 c-49 -12 -107 -42 -131 -68 -28 -31 -37 -26 -20 14 7 19
14 37 14 40 0 10 -289 5 -295 -5 -3 -5 -70 -213 -149 -462 -79 -249 -146 -463
-150 -476 l-8 -23 148 3 147 3 117 370 c64 204 124 384 133 401 18 35 40 47
69 38 27 -8 26 -12 -107 -435 -63 -200 -115 -367 -115 -371 0 -5 65 -8 144 -8
129 0 145 2 150 18 3 9 55 176 116 371 131 414 144 468 127 519 -20 59 -105
92 -190 71z"/>
<path d="M6760 2063 c-159 -19 -282 -116 -346 -273 -36 -88 -130 -388 -150
-477 -36 -164 27 -239 212 -251 223 -14 383 86 462 288 35 89 138 419 148 473
18 101 -33 191 -124 221 -52 17 -148 26 -202 19z m39 -172 c18 -11 15 -22 -84
-336 -89 -284 -101 -314 -131 -321 -62 -16 -60 2 52 351 95 298 115 336 163
306z"/>
<path d="M7678 2056 c-48 -13 -62 -21 -110 -65 -35 -31 -42 -24 -23 22 l15 37
-149 0 -149 0 -11 -32 c-91 -287 -291 -928 -291 -932 0 -3 65 -6 145 -6 80 0
145 2 145 3 0 10 230 728 243 759 19 45 58 68 82 48 8 -7 13 -20 11 -29 -13
-47 -239 -767 -243 -773 -2 -5 62 -8 144 -8 l148 0 105 333 c138 440 150 482
150 533 0 56 -37 101 -95 114 -50 12 -59 12 -117 -4z"/>
<path d="M8253 2060 c-170 -26 -264 -112 -317 -289 -40 -135 -17 -182 144
-295 105 -74 106 -75 90 -143 -7 -32 -22 -66 -36 -80 -27 -27 -72 -31 -81 -6
-5 14 14 109 33 157 5 14 -10 16 -124 16 l-131 0 -17 -57 c-9 -32 -19 -85 -22
-117 -6 -82 14 -118 87 -154 51 -24 66 -27 166 -27 159 0 267 44 329 134 47
67 89 180 93 251 6 89 -12 114 -136 195 -55 35 -107 75 -116 89 -15 23 -15 29
-1 80 11 36 25 61 41 72 56 37 80 -8 51 -93 -9 -26 -16 -48 -16 -50 0 -2 58
-3 129 -3 l130 0 17 58 c41 138 24 195 -69 237 -59 27 -164 37 -244 25z"/>
<path d="M3986 2042 c-2 -4 -70 -217 -151 -472 -80 -256 -148 -471 -150 -478
-4 -10 27 -12 147 -10 l151 3 148 470 c82 259 149 476 149 483 0 9 -35 12
-144 12 -80 0 -147 -3 -150 -8z"/>
</g>
</svg>
